<svg width="192" height="192" viewBox="0 0 192 192" xmlns="http://www.w3.org/2000/svg">
  <!-- Character animation sprite sheet -->
  <!-- Row 1: Down-facing animations (frames) -->
  <!-- Frame 1 -->
  <g id="down-idle">
    <rect x="0" y="0" width="48" height="48" fill="none"/>
    <circle cx="24" cy="16" r="10" fill="#e8b26f"/>
    <rect x="16" y="16" width="16" height="24" fill="#2a52be"/>
    <rect x="16" y="40" width="6" height="8" fill="#8b4513"/>
    <rect x="26" y="40" width="6" height="8" fill="#8b4513"/>
    <circle cx="20" cy="14" r="2" fill="#000"/>
    <circle cx="28" cy="14" r="2" fill="#000"/>
    <path d="M20,20 Q24,24 28,20" fill="none" stroke="#000" stroke-width="1"/>
  </g>
  
  <!-- Frame 2 -->
  <g id="down-walk1">
    <rect x="48" y="0" width="48" height="48" fill="none"/>
    <circle cx="72" cy="16" r="10" fill="#e8b26f"/>
    <rect x="64" y="16" width="16" height="24" fill="#2a52be"/>
    <rect x="64" y="40" width="6" height="8" fill="#8b4513"/>
    <rect x="74" y="38" width="6" height="8" fill="#8b4513"/>
    <circle cx="68" cy="14" r="2" fill="#000"/>
    <circle cx="76" cy="14" r="2" fill="#000"/>
    <path d="M68,20 Q72,24 76,20" fill="none" stroke="#000" stroke-width="1"/>
  </g>
  
  <!-- Frame 3 -->
  <g id="down-walk2">
    <rect x="96" y="0" width="48" height="48" fill="none"/>
    <circle cx="120" cy="16" r="10" fill="#e8b26f"/>
    <rect x="112" y="16" width="16" height="24" fill="#2a52be"/>
    <rect x="112" y="38" width="6" height="8" fill="#8b4513"/>
    <rect x="122" y="40" width="6" height="8" fill="#8b4513"/>
    <circle cx="116" cy="14" r="2" fill="#000"/>
    <circle cx="124" cy="14" r="2" fill="#000"/>
    <path d="M116,20 Q120,24 124,20" fill="none" stroke="#000" stroke-width="1"/>
  </g>
  
  <!-- Frame 4 -->
  <g id="down-walk3">
    <rect x="144" y="0" width="48" height="48" fill="none"/>
    <circle cx="168" cy="16" r="10" fill="#e8b26f"/>
    <rect x="160" y="16" width="16" height="24" fill="#2a52be"/>
    <rect x="160" y="38" width="6" height="8" fill="#8b4513"/>
    <rect x="170" y="38" width="6" height="8" fill="#8b4513"/>
    <circle cx="164" cy="14" r="2" fill="#000"/>
    <circle cx="172" cy="14" r="2" fill="#000"/>
    <path d="M164,20 Q168,24 172,20" fill="none" stroke="#000" stroke-width="1"/>
  </g>
  
  <!-- Row 2: Left-facing animations -->
  <!-- Frame 1 -->
  <g id="left-idle">
    <rect x="0" y="48" width="48" height="48" fill="none"/>
    <circle cx="24" cy="64" r="10" fill="#e8b26f"/>
    <rect x="16" y="64" width="16" height="24" fill="#4169e1"/>
    <rect x="16" y="88" width="6" height="8" fill="#8b4513"/>
    <rect x="26" y="88" width="6" height="8" fill="#8b4513"/>
    <circle cx="20" cy="62" r="2" fill="#000"/>
    <path d="M18,68 Q20,70 22,68" fill="none" stroke="#000" stroke-width="1"/>
  </g>
  
  <!-- Frame 2 -->
  <g id="left-walk1">
    <rect x="48" y="48" width="48" height="48" fill="none"/>
    <circle cx="72" cy="64" r="10" fill="#e8b26f"/>
    <rect x="64" y="64" width="16" height="24" fill="#4169e1"/>
    <rect x="64" y="88" width="6" height="8" fill="#8b4513"/>
    <rect x="74" y="86" width="6" height="8" fill="#8b4513"/>
    <circle cx="68" cy="62" r="2" fill="#000"/>
    <path d="M66,68 Q68,70 70,68" fill="none" stroke="#000" stroke-width="1"/>
  </g>
  
  <!-- Frame 3 -->
  <g id="left-walk2">
    <rect x="96" y="48" width="48" height="48" fill="none"/>
    <circle cx="120" cy="64" r="10" fill="#e8b26f"/>
    <rect x="112" y="64" width="16" height="24" fill="#4169e1"/>
    <rect x="112" y="86" width="6" height="8" fill="#8b4513"/>
    <rect x="122" y="88" width="6" height="8" fill="#8b4513"/>
    <circle cx="116" cy="62" r="2" fill="#000"/>
    <path d="M114,68 Q116,70 118,68" fill="none" stroke="#000" stroke-width="1"/>
  </g>
  
  <!-- Frame 4 -->
  <g id="left-walk3">
    <rect x="144" y="48" width="48" height="48" fill="none"/>
    <circle cx="168" cy="64" r="10" fill="#e8b26f"/>
    <rect x="160" y="64" width="16" height="24" fill="#4169e1"/>
    <rect x="160" y="86" width="6" height="8" fill="#8b4513"/>
    <rect x="170" y="86" width="6" height="8" fill="#8b4513"/>
    <circle cx="164" cy="62" r="2" fill="#000"/>
    <path d="M162,68 Q164,70 166,68" fill="none" stroke="#000" stroke-width="1"/>
  </g>
  
  <!-- Row 3: Right-facing animations -->
  <!-- Frame 1 -->
  <g id="right-idle">
    <rect x="0" y="96" width="48" height="48" fill="none"/>
    <circle cx="24" cy="112" r="10" fill="#e8b26f"/>
    <rect x="16" y="112" width="16" height="24" fill="#4169e1"/>
    <rect x="16" y="136" width="6" height="8" fill="#8b4513"/>
    <rect x="26" y="136" width="6" height="8" fill="#8b4513"/>
    <circle cx="28" cy="110" r="2" fill="#000"/>
    <path d="M24,116 Q26,118 28,116" fill="none" stroke="#000" stroke-width="1"/>
  </g>
  
  <!-- Frame 2 -->
  <g id="right-walk1">
    <rect x="48" y="96" width="48" height="48" fill="none"/>
    <circle cx="72" cy="112" r="10" fill="#e8b26f"/>
    <rect x="64" y="112" width="16" height="24" fill="#4169e1"/>
    <rect x="64" y="136" width="6" height="8" fill="#8b4513"/>
    <rect x="74" y="134" width="6" height="8" fill="#8b4513"/>
    <circle cx="76" cy="110" r="2" fill="#000"/>
    <path d="M72,116 Q74,118 76,116" fill="none" stroke="#000" stroke-width="1"/>
  </g>
  
  <!-- Frame 3 -->
  <g id="right-walk2">
    <rect x="96" y="96" width="48" height="48" fill="none"/>
    <circle cx="120" cy="112" r="10" fill="#e8b26f"/>
    <rect x="112" y="112" width="16" height="24" fill="#4169e1"/>
    <rect x="112" y="134" width="6" height="8" fill="#8b4513"/>
    <rect x="122" y="136" width="6" height="8" fill="#8b4513"/>
    <circle cx="124" cy="110" r="2" fill="#000"/>
    <path d="M120,116 Q122,118 124,116" fill="none" stroke="#000" stroke-width="1"/>
  </g>
  
  <!-- Frame 4 -->
  <g id="right-walk3">
    <rect x="144" y="96" width="48" height="48" fill="none"/>
    <circle cx="168" cy="112" r="10" fill="#e8b26f"/>
    <rect x="160" y="112" width="16" height="24" fill="#4169e1"/>
    <rect x="160" y="134" width="6" height="8" fill="#8b4513"/>
    <rect x="170" y="134" width="6" height="8" fill="#8b4513"/>
    <circle cx="172" cy="110" r="2" fill="#000"/>
    <path d="M168,116 Q170,118 172,116" fill="none" stroke="#000" stroke-width="1"/>
  </g>
  
  <!-- Row 4: Up-facing animations -->
  <!-- Frame 1 -->
  <g id="up-idle">
    <rect x="0" y="144" width="48" height="48" fill="none"/>
    <circle cx="24" cy="160" r="10" fill="#e8b26f"/>
    <rect x="16" y="160" width="16" height="24" fill="#5b5bff"/>
    <rect x="16" y="184" width="6" height="8" fill="#8b4513"/>
    <rect x="26" y="184" width="6" height="8" fill="#8b4513"/>
    <path d="M20,164 C22,162 26,162 28,164" fill="#643200" stroke="none"/>
  </g>
  
  <!-- Frame 2 -->
  <g id="up-walk1">
    <rect x="48" y="144" width="48" height="48" fill="none"/>
    <circle cx="72" cy="160" r="10" fill="#e8b26f"/>
    <rect x="64" y="160" width="16" height="24" fill="#5b5bff"/>
    <rect x="64" y="184" width="6" height="8" fill="#8b4513"/>
    <rect x="74" y="182" width="6" height="8" fill="#8b4513"/>
    <path d="M68,164 C70,162 74,162 76,164" fill="#643200" stroke="none"/>
  </g>
  
  <!-- Frame 3 -->
  <g id="up-walk2">
    <rect x="96" y="144" width="48" height="48" fill="none"/>
    <circle cx="120" cy="160" r="10" fill="#e8b26f"/>
    <rect x="112" y="160" width="16" height="24" fill="#5b5bff"/>
    <rect x="112" y="182" width="6" height="8" fill="#8b4513"/>
    <rect x="122" y="184" width="6" height="8" fill="#8b4513"/>
    <path d="M116,164 C118,162 122,162 124,164" fill="#643200" stroke="none"/>
  </g>
  
  <!-- Frame 4 -->
  <g id="up-walk3">
    <rect x="144" y="144" width="48" height="48" fill="none"/>
    <circle cx="168" cy="160" r="10" fill="#e8b26f"/>
    <rect x="160" y="160" width="16" height="24" fill="#5b5bff"/>
    <rect x="160" y="182" width="6" height="8" fill="#8b4513"/>
    <rect x="170" y="182" width="6" height="8" fill="#8b4513"/>
    <path d="M164,164 C166,162 170,162 172,164" fill="#643200" stroke="none"/>
  </g>
</svg>
