<svg width="240" height="96" viewBox="0 0 240 96" xmlns="http://www.w3.org/2000/svg">
  <!-- Tile sprite sheet -->
  <!-- Row 1: Basic tiles -->
  
  <!-- Grass tile -->
  <g id="grass">
    <rect x="0" y="0" width="48" height="48" fill="#7ec850"/>
    <!-- Grass details -->
    <path d="M10,24 L15,18 M8,36 L16,28 M24,44 L32,36 M36,16 L42,10" 
          stroke="#5a9f30" stroke-width="2" stroke-linecap="round"/>
    <path d="M20,8 L24,4 M40,32 L46,26" 
          stroke="#5a9f30" stroke-width="2" stroke-linecap="round"/>
  </g>
  
  <!-- Path tile -->
  <g id="path">
    <rect x="48" y="0" width="48" height="48" fill="#d8b078"/>
    <!-- Path details -->
    <circle cx="60" cy="12" r="2" fill="#b89060"/>
    <circle cx="78" cy="24" r="3" fill="#b89060"/>
    <circle cx="54" cy="36" r="2" fill="#b89060"/>
    <circle cx="72" cy="42" r="1" fill="#b89060"/>
    <circle cx="90" cy="8" r="2" fill="#b89060"/>
  </g>
  
  <!-- Water tile -->
  <g id="water">
    <rect x="96" y="0" width="48" height="48" fill="#5084e8"/>
    <!-- Water ripples -->
    <path d="M96,12 Q108,8 120,12 Q132,16 144,12" 
          stroke="#7ba5ff" stroke-width="2" fill="none"/>
    <path d="M96,24 Q108,20 120,24 Q132,28 144,24" 
          stroke="#7ba5ff" stroke-width="2" fill="none"/>
    <path d="M96,36 Q108,32 120,36 Q132,40 144,36" 
          stroke="#7ba5ff" stroke-width="2" fill="none"/>
  </g>
  
  <!-- Tree bottom part -->
  <g id="tree-bottom">
    <rect x="144" y="0" width="48" height="48" fill="none"/>
    <!-- Tree trunk -->
    <rect x="164" y="0" width="10" height="30" fill="#8b4513"/>
    <rect x="160" y="18" width="18" height="30" fill="#8b4513"/>
    <!-- Soil around tree base -->
    <ellipse cx="168" cy="42" rx="16" ry="6" fill="#9f7553"/>
  </g>
  
  <!-- Tree top part -->
  <g id="tree-top">
    <rect x="192" y="0" width="48" height="48" fill="none"/>
    <!-- Tree leaves -->
    <ellipse cx="216" cy="24" rx="20" ry="24" fill="#2d8e44"/>
    <ellipse cx="208" cy="16" rx="16" ry="12" fill="#3aa255"/>
    <ellipse cx="224" cy="16" rx="10" ry="8" fill="#3aa255"/>
  </g>
  
  <!-- Row 2: More tiles -->
  
  <!-- Rock tile -->
  <g id="rock">
    <rect x="0" y="48" width="48" height="48" fill="none"/>
    <!-- Rock shape -->
    <ellipse cx="24" cy="66" rx="18" ry="14" fill="#888888"/>
    <ellipse cx="24" cy="66" rx="14" ry="10" fill="#999999"/>
    <!-- Rock details -->
    <path d="M14,60 L20,58 M28,58 L34,60 M18,68 L20,74" 
          stroke="#777777" stroke-width="1" fill="none"/>
  </g>
  
  <!-- Fence tile -->
  <g id="fence">
    <rect x="48" y="48" width="48" height="48" fill="none"/>
    <!-- Fence posts -->
    <rect x="58" y="56" width="6" height="28" fill="#8b4513"/>
    <rect x="82" y="56" width="6" height="28" fill="#8b4513"/>
    <!-- Fence boards -->
    <rect x="56" y="64" width="34" height="4" fill="#a05a2c"/>
    <rect x="56" y="76" width="34" height="4" fill="#a05a2c"/>
  </g>
  
  <!-- Crops tile -->
  <g id="crops">
    <rect x="96" y="48" width="48" height="48" fill="none"/>
    <!-- Soil -->
    <rect x="96" y="76" width="48" height="20" fill="#6e5141"/>
    <!-- Crop rows -->
    <rect x="96" y="70" width="48" height="2" fill="#8b6c5a"/>
    <rect x="96" y="76" width="48" height="2" fill="#8b6c5a"/>
    <rect x="96" y="82" width="48" height="2" fill="#8b6c5a"/>
    <rect x="96" y="88" width="48" height="2" fill="#8b6c5a"/>
    <!-- Crop plants -->
    <path d="M106,70 C106,64 102,58 98,56" stroke="#4caf50" stroke-width="2" fill="none"/>
    <path d="M106,70 C106,64 110,58 114,56" stroke="#4caf50" stroke-width="2" fill="none"/>
    <path d="M124,70 C124,64 120,58 116,56" stroke="#4caf50" stroke-width="2" fill="none"/>
    <path d="M124,70 C124,64 128,58 132,56" stroke="#4caf50" stroke-width="2" fill="none"/>
    <path d="M142,70 C142,64 138,58 134,56" stroke="#4caf50" stroke-width="2" fill="none"/>
    <path d="M142,70 C142,64 146,58 150,56" stroke="#4caf50" stroke-width="2" fill="none"/>
  </g>
  
  <!-- House tile -->
  <g id="house">
    <rect x="144" y="48" width="48" height="48" fill="none"/>
    <!-- House base -->
    <rect x="152" y="60" width="32" height="28" fill="#e3c099"/>
    <!-- House roof -->
    <polygon points="152,60 184,60 168,42" fill="#d35f5f"/>
    <!-- Door -->
    <rect x="162" y="74" width="12" height="14" fill="#8b4513"/>
    <circle cx="166" cy="82" r="1" fill="#ffd700"/>
    <!-- Window -->
    <rect x="176" y="68" width="8" height="8" fill="#add8e6"/>
    <path d="M176,72 L184,72 M180,68 L180,76" stroke="#ffffff" stroke-width="1"/>
  </g>
  
  <!-- Empty tile -->
  <g id="empty">
    <rect x="192" y="48" width="48" height="48" fill="none"/>
  </g>
</svg>
